<svg width="40" height="40" viewBox="0 0 40 40" fill="none" xmlns="http://www.w3.org/2000/svg">
<path d="M29.1724 0H10.8276C4.85718 0 0 4.85718 0 10.8276V29.1727C0 35.1428 4.85718 40 10.8276 40H29.1727C35.1428 40 40 35.1428 40 29.1727V10.8276C40 4.85718 35.1428 0 29.1724 0ZM20 30.9372C13.9691 30.9372 9.06281 26.0309 9.06281 20C9.06281 13.9691 13.9691 9.06281 20 9.06281C26.0309 9.06281 30.9372 13.9691 30.9372 20C30.9372 26.0309 26.0309 30.9372 20 30.9372ZM31.1987 11.6422C29.4165 11.6422 27.9669 10.1926 27.9669 8.41034C27.9669 6.62811 29.4165 5.17822 31.1987 5.17822C32.981 5.17822 34.4308 6.62811 34.4308 8.41034C34.4308 10.1926 32.981 11.6422 31.1987 11.6422Z" fill="white"/>
<path d="M19.9985 11.4073C15.2609 11.4073 11.4063 15.2617 11.4063 19.9995C11.4063 24.7371 15.2609 28.5918 19.9985 28.5918C24.7363 28.5918 28.5907 24.7371 28.5907 19.9995C28.5907 15.2617 24.7363 11.4073 19.9985 11.4073Z" fill="white"/>
<path d="M31.1993 7.52375C30.7104 7.52375 30.3125 7.9217 30.3125 8.41059C30.3125 8.89949 30.7104 9.29743 31.1993 9.29743C31.6885 9.29743 32.0865 8.89979 32.0865 8.41059C32.0865 7.9214 31.6885 7.52375 31.1993 7.52375Z" fill="white"/>
</svg>
