<svg width="447" height="515" viewBox="0 0 447 515" fill="none" xmlns="http://www.w3.org/2000/svg">
<path d="M131.453 317.783C131.655 317.875 131.854 317.969 132.05 318.064C137.721 317.72 144.71 316.474 152.923 313.706C191.038 300.862 178.593 301.932 172.42 314.071C160.462 337.587 202.718 320.922 207.444 341.781C212.169 362.64 235.058 355.734 259.68 353.97C284.301 352.206 310.284 381.189 308.555 384.868C307.648 386.798 305.76 386.644 304.48 385.956C287.405 376.772 256.927 395.737 244.954 403.522C232.164 411.839 223.831 409.38 220.769 408.476L220.712 408.459C227.045 420.295 219.028 437.474 215.67 443.076C212.312 448.679 199.853 469.885 198.571 474.138C197.714 476.979 199.637 480.518 201.603 485.504C202.969 488.967 200.071 491.192 196.867 489.123C164.887 459.205 176.195 432.846 183.04 409.592C189.885 386.337 177.273 380.42 163.575 371.848C131.036 351.485 153.137 328.317 132.05 318.064C109.887 319.408 107.835 306.983 131.453 317.783Z" fill="#4CC7DA" stroke="#4CC7DA" stroke-width="5"/>
<path fill-rule="evenodd" clip-rule="evenodd" d="M232.871 153.934C252.865 125.997 287.018 106.389 292.581 102.962C299.535 98.678 322.704 84.3599 324.297 79.4865C325.891 74.6131 322.065 60.5838 300.935 59.2309C293.808 58.7746 291.132 58.9019 285.761 59.7368C279.553 60.702 269.27 64.136 257.668 54.8585C236.04 41.4042 183.228 42.0201 136.957 74.4043C91.8095 106.002 63.9517 166.602 70.5614 224.021L70.3379 223.83C71.3888 257.975 83.9865 287.041 101.876 313.394C124.064 346.078 174.383 389.887 180.298 398.567C186.213 407.246 181.085 450.062 181.085 450.062C189.071 444.058 202.407 430.958 188.218 406.711C196.007 415.174 197.166 421.003 204.479 428.844C230.947 457.218 192.59 377.431 188.807 361.041C185.834 348.161 217.97 400.996 226.59 396.475C235.537 391.784 232.19 383.405 229.98 377.874C228.531 374.245 227.571 371.842 230.896 372.512C231.485 372.771 232.065 372.937 232.632 373.005C231.955 372.772 231.38 372.609 230.896 372.512C215.667 365.816 184.864 287.237 202.366 237.134C208.661 219.113 200.168 244.893 202.366 237.134C206.515 222.485 215.171 188.133 232.871 153.934Z" fill="#4CC7DA"/>
<path d="M35.4709 169.251C48.4755 154.564 95.9124 132.891 114.54 127.364C119.138 135.918 120.317 155.907 121.514 159.168C122.71 162.429 101.203 195.935 90.2996 212.28C83.3003 221.352 78.8731 247.071 74.4929 233.085C70.1127 219.098 42.7512 197.268 34.9513 193.637C29.7475 189.687 22.0853 184.368 35.4709 169.251Z" fill="#4CC7DA"/>
<path d="M251.772 101.445C278.702 104.25 311.657 87.6722 322.742 81.3825C323.007 82.3755 318.43 85.3429 311.712 90.8019C304.994 96.2608 256.401 122.632 241.189 147.593C174.364 257.247 205.02 319.373 216.82 351.973C216.964 352.248 217.134 352.582 217.336 352.981C217.228 352.822 217.12 352.663 217.012 352.505C217.012 352.505 217.012 352.505 217.012 352.505C217.562 354.037 216.928 352.749 216.495 351.743C141.107 240.528 156.283 205.595 182.13 157.565C199.634 125.036 233.893 99.5829 251.772 101.445Z" fill="#B8F5FF"/>
<path fill-rule="evenodd" clip-rule="evenodd" d="M219.622 103.023C210.598 106.311 202.614 108.069 199.7 98.9159C196.735 89.7712 201.57 79.4936 210.543 76.2135C219.566 72.9249 229.275 77.8997 232.189 87.0528C235.181 96.3652 228.441 99.7682 219.622 103.023Z" fill="white"/>
<path fill-rule="evenodd" clip-rule="evenodd" d="M206.519 96.8576C208.08 101.761 213.219 104.23 217.802 102.545C222.436 100.851 225.035 95.5386 223.474 90.6351C221.913 85.7316 216.774 83.263 212.191 84.948C207.413 86.7229 204.958 91.9541 206.519 96.8576ZM208.303 92.6539C208.928 94.6153 210.868 95.6678 212.788 94.945C214.767 94.2695 215.684 92.1649 215.009 90.212C214.385 88.2506 212.444 87.1981 210.525 87.9209C208.749 88.5624 207.679 90.6925 208.303 92.6539Z" fill="#111111"/>
<path fill-rule="evenodd" clip-rule="evenodd" d="M153.598 173.285C160.739 172.647 178.897 175.467 194.402 191.849C194.841 192.313 195.282 192.778 195.723 193.242C214.723 213.276 234.567 234.199 218.176 294.896C217.85 296.105 217.621 296.351 216.76 298.642C216.145 300.278 214.598 301.574 212.938 299.949C211.414 277.59 206.322 255.263 183.235 246.865C160.147 238.468 135.356 223.197 148.359 178.337C148.716 177.106 149.355 176.19 150.638 174.376C152.169 173.641 152.487 173.581 153.598 173.285Z" fill="#41B6C8"/>
<path d="M135.545 91.805C147.814 87.2991 155.913 104.932 139.667 133.428C128.371 153.242 86.9373 202.843 163.103 342.683C144.597 363.811 86.5951 287.429 86.9373 202.843C87.2124 134.866 123.628 96.1813 135.545 91.805Z" fill="#68D8E8"/>
<path d="M82.2787 152.27C77.9558 146.951 36.2531 171.619 36.9866 178.783C37.7202 185.948 79.6273 216.275 76.4746 204.456C73.3219 192.638 86.6018 157.588 82.2787 152.27Z" fill="#68D8E8"/>
</svg>
