<svg width="437" height="585" viewBox="0 0 437 585" fill="none" xmlns="http://www.w3.org/2000/svg">
<path fill-rule="evenodd" clip-rule="evenodd" d="M307.819 320.837C327.42 343.528 374.071 386.153 388.22 413.005C402.2 439.585 438.069 368.292 398.786 309.248C359.503 250.204 304.856 251.321 293.708 256.931C282.112 262.366 288.218 298.145 307.819 320.837Z" fill="#DC5A1E"/>
<path fill-rule="evenodd" clip-rule="evenodd" d="M103.671 510.835C94.287 497.725 89.9893 483.581 91.0366 469.673L227.105 480.346L331.636 430.124C345.828 441.505 355.731 454.784 360.366 468.682C365.001 482.58 364.265 496.747 358.262 509.95C357.242 512.201 356.073 514.392 354.755 516.526L371.286 513.164L433.457 525.281C428.322 540.132 417.911 545.143 387.554 542.774C349.66 539.791 344.937 540.073 326.685 546.684C325.712 547.059 324.525 547.454 323.136 548.011C319.029 549.533 313.325 551.702 306.409 553.981C295.443 558.423 283.297 561.749 270.465 563.842C249.412 567.324 226.974 567.406 205.09 564.057C183.212 560.779 162.543 554.155 144.872 544.887C127.208 535.689 113.055 523.945 103.671 510.835Z" fill="#DC5A1E"/>
<path fill-rule="evenodd" clip-rule="evenodd" d="M157.137 414.502C152.885 408.843 149.75 402.795 147.626 396.799C137.901 369.548 165.32 333.765 197.505 328.487C229.69 323.209 289.884 329.361 298.097 386.101C298.316 387.736 298.399 389.455 298.34 391.187C284.739 358.458 235.946 347.896 205.247 352.896C185.401 356.198 169.029 364.509 161.451 375.408C153.719 385.387 151.193 398.06 156.204 412.14C156.496 412.977 156.781 413.743 157.137 414.502Z" fill="#DC5A1E"/>
<g opacity="0.8">
<g opacity="0.8">
<path opacity="0.8" fill-rule="evenodd" clip-rule="evenodd" d="M323.421 300.796C320.389 303.876 320.412 308.909 323.562 311.934C327.355 315.693 333.454 322.696 338.69 331.289C344.003 339.946 348.096 349.432 348.739 358.151C349.061 362.511 352.873 365.692 357.161 365.377C361.52 365.055 364.701 361.243 364.386 356.955C363.422 344.668 357.955 332.716 352.045 323.033C346.058 313.286 339.148 305.276 334.488 300.661C331.48 297.623 326.452 297.717 323.421 300.796Z" fill="#4CC7DA"/>
</g>
</g>
<path d="M46.1888 380.053C39.4422 466.343 112.588 542.692 209.821 550.321C307.126 557.945 391.278 493.95 398.019 407.589C404.759 321.227 331.619 244.95 234.386 237.32C137.153 229.69 53.0068 293.756 46.1888 380.053Z" stroke="#FB7015" stroke-width="2.0464"/>
<path fill-rule="evenodd" clip-rule="evenodd" d="M165.616 98.6359C206.79 114.057 199.292 121.856 202.043 141.176C202.599 153.715 201.098 176.152 187.566 205.574C187.066 206.411 185.019 211.631 184.349 213.778C179.311 229.7 179.1 235.33 182.465 237.544C185.895 239.681 196.957 237.1 196.957 237.1C268.9 231.544 320.702 254.712 359.717 298.025C385.521 328.071 401.264 367.009 397.966 408.601C396.364 436.299 387.667 453.126 380.86 466.186C375.228 477.126 381.814 483.941 392.222 490.053C393.668 490.929 397.124 492.56 401.404 494.548C409.212 498.16 419.652 503.045 425.384 506.772C432.569 511.448 434.855 516.853 433.832 523.852C433.401 527.056 430.824 529.59 425.86 532.772C418.741 536.004 409.239 534.344 399.523 532.702C396.014 532.084 392.434 531.472 388.95 531.138C368.025 528.854 355.152 524.907 334.248 528.448C318.516 531.091 296.158 537.64 280.82 542.261C233.434 560.062 122.555 557.476 65.845 464.753C60.3964 454.597 57.204 446.324 54.2836 438.674C53.9987 437.908 53.7138 437.143 53.3575 436.383C44.7321 414.141 42.2684 393.212 51.0393 354.076C51.0785 353.713 51.1889 353.343 51.2345 353.052C50.963 351.637 51.0033 349.691 51.5758 347.266C59.9888 309.745 87.7561 276.233 87.7561 276.233C156.306 194.798 224.022 100.92 165.616 98.6359ZM147.797 393.907C153.585 419.787 191.82 456.048 245.715 442.625C279.814 437.03 301.263 403.657 298.338 383.202C286.962 332.862 238.091 322.236 203.992 327.831C165.425 331.742 137.825 367.109 147.797 393.907Z" fill="#FA6E14"/>
<path fill-rule="evenodd" clip-rule="evenodd" d="M161.895 419.396C151.465 408.251 145.831 394.443 146.917 380.173C149.443 348.363 184.547 324.405 226.352 327.683C268.158 330.962 299.132 360.109 296.601 391.847C295.992 399.456 293.542 406.583 289.593 413.055C289.755 414.047 289.91 414.968 290.071 415.961C294.896 408.835 297.905 400.722 298.56 392.03C301.17 358.774 268.925 329.094 226.464 325.731C184.081 322.433 147.563 346.662 144.958 379.99C143.722 395.785 150.328 410.8 162.178 422.536C162.088 421.537 161.991 420.467 161.895 419.396Z" fill="#FA6E14"/>
<path fill-rule="evenodd" clip-rule="evenodd" d="M309.716 288.436C307.301 291.963 308.238 296.771 311.759 299.115C316.123 302.03 323.189 307.795 329.749 315.117C336.387 322.504 341.973 330.992 344.16 339.284C345.253 343.43 349.429 345.859 353.575 344.765C357.721 343.672 360.15 339.496 359.056 335.35C355.989 323.685 348.627 313.054 341.193 304.804C333.751 296.483 325.673 289.874 320.317 286.328C316.939 283.971 312.132 284.909 309.716 288.436Z" fill="white"/>
<path fill-rule="evenodd" clip-rule="evenodd" d="M159.565 114.505C145.4 121.754 131.362 121.654 112.731 112.903C109.679 108.575 110.739 105.17 112.754 98.0095C110.635 86.4743 123.598 63.5066 67.9908 75.502C98.1992 0.475752 182.183 12.7541 219.046 72.8801C255.611 132.889 228.96 174.789 200.732 219.134C196.011 226.61 191.218 234.093 186.659 241.77L114.166 244.426C149.519 207.28 176.935 156.318 159.565 114.505Z" fill="#FA6E14"/>
<path fill-rule="evenodd" clip-rule="evenodd" d="M68.3614 74.0294C-6.55284 136.759 74.4649 199.088 96.9814 198.279C102.848 193.937 82.3988 150.675 109.684 111.02C118.44 83.6835 112.998 73.5992 97.3663 70.9808C81.6568 68.2976 71.0156 72.3511 68.3614 74.0294Z" fill="#FF8C28"/>
<path fill-rule="evenodd" clip-rule="evenodd" d="M45.7627 100.241C13.9983 154.832 76.3481 205.608 93.3211 200.768C106.012 197.105 95.3809 186.122 94.8385 163.365C89.8846 141.151 53.6048 101.044 45.7627 100.241Z" fill="#DC5A1E"/>
<path fill-rule="evenodd" clip-rule="evenodd" d="M107.788 113.925C125.368 122.195 143.168 122.531 157.008 116.462C157.839 116.1 158.209 116.21 158.669 116.528C160.796 117.775 160.724 118.573 161.3 120.176C176.785 166.619 140.804 212.743 87.4709 276.258C92.6828 271.831 112.137 252.235 115.123 249.448C149.454 216.926 197.624 152.797 180.689 111.808C168.68 84.7625 125.76 117.771 113.948 88.9093C113.87 88.8444 111.985 103.834 107.788 113.925Z" fill="#DC5A1E"/>
<path d="M51.5456 153.171L51.7533 153.081L51.8895 152.996C52.9669 152.18 53.1429 150.941 53.1113 149.793C53.0861 148.716 52.7496 147.379 52.3418 146.049C52.0376 145.07 51.6493 143.954 51.2544 142.766C51.1508 142.416 50.9694 142 50.8658 141.65C50.3609 140.041 49.7847 138.438 49.3447 136.751C48.4583 133.306 48.0066 129.894 47.7684 127.254C47.7169 126.683 47.6653 126.112 47.6203 125.612C47.5623 124.97 47.5108 124.399 47.4658 123.9C47.4271 123.472 47.3886 123.043 47.2915 122.764C47.2786 122.622 47.1879 122.414 47.175 122.271C47.1621 122.129 47.0651 121.85 46.8317 121.655L46.4298 121.187L45.8524 121.168C45.2751 121.148 44.8662 121.4 44.6001 121.64C44.334 121.88 44.2106 122.107 44.0872 122.334C43.9053 122.71 43.8077 123.223 43.7036 123.664C43.5018 124.617 43.4037 125.921 43.3962 127.432C43.3098 130.462 43.4561 134.477 43.8816 138.395C44.3071 142.314 45.0181 146.206 45.9892 148.996C46.4748 150.391 47.0902 151.631 47.9589 152.488C48.3607 152.955 48.8924 153.267 49.5603 153.494C50.209 153.508 50.9227 153.443 51.5456 153.171Z" fill="white"/>
<path d="M51.5456 153.171L51.7533 153.081L51.8895 152.996C52.9669 152.18 53.1429 150.941 53.1113 149.793C53.0861 148.716 52.7496 147.379 52.3418 146.049C52.0376 145.07 51.6493 143.954 51.2544 142.766C51.1508 142.416 50.9694 142 50.8658 141.65C50.3609 140.041 49.7847 138.438 49.3447 136.751C48.4583 133.306 48.0066 129.894 47.7684 127.254C47.7169 126.683 47.6653 126.112 47.6203 125.612C47.5623 124.97 47.5108 124.399 47.4658 123.9C47.4271 123.472 47.3886 123.043 47.2915 122.764C47.2786 122.622 47.1879 122.414 47.175 122.271C47.1621 122.129 47.0651 121.85 46.8317 121.655L46.4298 121.187L45.8524 121.168C45.2751 121.148 44.8662 121.4 44.6001 121.64C44.334 121.88 44.2106 122.107 44.0872 122.334C43.9053 122.71 43.8077 123.223 43.7036 123.664C43.5018 124.617 43.4037 125.921 43.3962 127.432C43.3098 130.462 43.4561 134.477 43.8816 138.395C44.3071 142.314 45.0181 146.206 45.9892 148.996C46.4748 150.391 47.0902 151.631 47.9589 152.488C48.3607 152.955 48.8924 153.267 49.5603 153.494C50.209 153.508 50.9227 153.443 51.5456 153.171Z" stroke="white" stroke-width="2.8924"/>
<path fill-rule="evenodd" clip-rule="evenodd" d="M134.972 87.5145C148.231 88.5485 159.693 79.2411 160.61 67.0723C161.597 54.8971 151.686 43.921 138.499 42.8807C125.241 41.8467 113.779 51.1541 112.862 63.3229C111.894 75.7122 121.999 86.4548 134.972 87.5145Z" fill="white"/>
<path fill-rule="evenodd" clip-rule="evenodd" d="M150.731 66.8131C150.24 73.3321 144.119 78.0568 137.38 77.5138C130.569 76.9773 125.312 71.3366 125.803 64.8176C126.294 58.2987 132.414 53.5739 139.154 54.1169C146.185 54.7055 151.222 60.2941 150.731 66.8131ZM146.939 62.2634C146.742 64.871 144.471 66.8026 141.643 66.5542C138.75 66.3835 136.818 64.1118 137.086 61.4978C137.282 58.8902 139.554 56.9586 142.382 57.2071C144.99 57.4034 147.135 59.6558 146.939 62.2634Z" fill="#111111"/>
<path d="M203.833 236.767C191.132 236.33 194.654 227.524 198.004 223.193L195.129 216.042C190.183 220.229 180.045 229.058 178.817 230.607C177.266 232.546 177.659 245.675 177.489 247.777C177.312 249.807 203.022 247.703 205.123 247.874C207.082 248.057 219.635 237.284 203.833 236.767Z" fill="#FA6E14"/>
<path fill-rule="evenodd" clip-rule="evenodd" d="M112.112 375.544C125.071 406.748 144.219 475.451 164.284 503.28C184.167 530.694 92.571 532.124 52.7887 462.765C13.0063 393.406 42.7018 338.21 54.2283 329.616C65.7747 320.445 99.1529 344.34 112.112 375.544Z" fill="#DC5A1E"/>
<path d="M116.869 266.412C110.13 274.646 104.562 287.882 102.166 301.191C99.7696 314.501 100.636 328.091 106.974 336.944L107.298 337.346L107.785 337.158C110.296 336.284 111.718 334.501 112.511 332.128C113.232 329.76 113.403 326.867 113.25 323.572C113.199 321.418 112.98 318.992 112.755 316.494C112.639 315.21 112.523 313.925 112.472 312.563C112.189 308.632 111.952 304.409 112.215 300.141C112.289 296.177 113.687 290.943 115.805 285.716C117.93 280.561 120.71 275.49 123.625 271.917C125.592 269.798 126.845 267.742 127.411 266.036C127.976 264.331 127.912 262.826 127.031 261.826C126.078 260.833 124.567 260.825 122.905 261.551C121.114 262.432 119.089 263.909 116.869 266.412Z" fill="white"/>
<path d="M116.869 266.412C110.13 274.646 104.562 287.882 102.166 301.191C99.7696 314.501 100.636 328.091 106.974 336.944L107.298 337.346L107.785 337.158C110.296 336.284 111.718 334.501 112.511 332.128C113.232 329.76 113.403 326.867 113.25 323.572C113.199 321.418 112.98 318.992 112.755 316.494C112.639 315.21 112.523 313.925 112.472 312.563C112.189 308.632 111.952 304.409 112.215 300.141C112.289 296.177 113.687 290.943 115.805 285.716C117.93 280.561 120.71 275.49 123.625 271.917C125.592 269.798 126.845 267.742 127.411 266.036C127.976 264.331 127.912 262.826 127.031 261.826C126.078 260.833 124.567 260.825 122.905 261.551C121.114 262.432 119.089 263.909 116.869 266.412Z" stroke="white" stroke-width="1.4462"/>
<path d="M143.617 243.135C142.502 241.941 140.874 242.232 139.492 242.86C138.045 243.566 136.578 244.849 135.332 246.185C134.02 247.598 132.942 249.206 132.345 250.555C132.046 251.23 131.825 251.969 131.811 252.618C131.798 253.266 131.999 253.896 132.543 254.35C133.081 254.733 133.737 254.818 134.379 254.76C135.021 254.702 135.715 254.424 136.41 254.145C137.792 253.517 139.271 252.376 140.596 251.106C141.92 249.835 143.017 248.441 143.68 247.014C144.362 245.802 144.583 244.271 143.617 243.135Z" fill="white"/>
<path d="M143.617 243.135C142.502 241.941 140.874 242.232 139.492 242.86C138.045 243.566 136.578 244.849 135.332 246.185C134.02 247.598 132.942 249.206 132.345 250.555C132.046 251.23 131.825 251.969 131.811 252.618C131.798 253.266 131.999 253.896 132.543 254.35C133.081 254.733 133.737 254.818 134.379 254.76C135.021 254.702 135.715 254.424 136.41 254.145C137.792 253.517 139.271 252.376 140.596 251.106C141.92 249.835 143.017 248.441 143.68 247.014C144.362 245.802 144.583 244.271 143.617 243.135Z" stroke="white" stroke-width="1.4462"/>
</svg>
