<svg width="166" height="43" viewBox="0 0 166 43" fill="none" xmlns="http://www.w3.org/2000/svg">
<path d="M3 40L13 32.5C18.9259 28.0556 27.0741 28.0556 33 32.5V32.5C38.9259 36.9444 47.0741 36.9444 53 32.5V32.5C58.9259 28.0556 67.0741 28.0556 73 32.5V32.5C78.9259 36.9444 87.0741 36.9444 93 32.5V32.5C98.9259 28.0556 107.074 28.0556 113 32.5V32.5C118.926 36.9444 127.074 36.9444 133 32.5V32.5C138.926 28.0556 147.074 28.0556 153 32.5L163 40" stroke="white" stroke-width="6" stroke-miterlimit="5.24084" stroke-linecap="round"/>
<path d="M3 15L13 7.5C18.9259 3.05556 27.0741 3.05556 33 7.5V7.5C38.9259 11.9444 47.0741 11.9444 53 7.5V7.5C58.9259 3.05556 67.0741 3.05556 73 7.5V7.5C78.9259 11.9444 87.0741 11.9444 93 7.5V7.5C98.9259 3.05556 107.074 3.05556 113 7.5V7.5C118.926 11.9444 127.074 11.9444 133 7.5V7.5C138.926 3.05556 147.074 3.05556 153 7.5L163 15" stroke="white" stroke-width="6" stroke-miterlimit="5.24084" stroke-linecap="round"/>
</svg>
