<svg width="351" height="356" viewBox="0 0 351 356" fill="none" xmlns="http://www.w3.org/2000/svg">
<path fill-rule="evenodd" clip-rule="evenodd" d="M231.811 184.911L270.356 142.716L244.086 128.741C245.464 126.246 246.852 123.571 248.279 120.827C250.671 116.231 253.182 111.425 255.973 106.779C265.667 90.6823 275.58 82.3824 285.883 87.8928C299.451 99.1018 291.129 111.175 286.265 120.184C285.867 120.881 285.504 121.598 285.161 122.28C280.168 131.678 278.282 142.756 285.595 150.673C288.719 154.026 302.644 155.457 308.69 158.63C315.628 162.913 319.131 168.517 319.453 174.107C319.94 182.566 312.408 191.068 305.568 193.173C298.885 197.678 273.22 188.069 267.388 184.925C261.571 181.837 251.698 180.917 245.224 185.54C238.749 190.164 237.685 201.342 236.994 211.299C235.25 217.837 235.328 214.138 235.25 217.837L231.811 184.911Z" fill="#F02F3E"/>
<path fill-rule="evenodd" clip-rule="evenodd" d="M146.179 156.885C138.522 157.183 129.643 162.052 122.27 169.952C110.503 182.555 101.252 208.563 113.957 225.334C113.051 224.816 112.184 224.229 111.392 223.592C84.8289 201.547 99.6829 171.713 112.077 158.497C124.416 145.297 150.981 144.097 162.011 157.324C162.35 157.702 162.634 158.095 162.953 158.508C157.834 155.818 152.033 155.373 146.179 156.885Z" fill="#F02F3E"/>
<path fill-rule="evenodd" clip-rule="evenodd" d="M40.0814 253.882C38.5075 252.753 41.0646 249.406 44.3133 245.252C47.8355 240.7 52.129 235.201 52.4549 230.581C52.707 227.305 48.536 229.269 44.5691 231.118C42.3741 232.13 40.2688 233.147 38.9893 233.202C38.845 233.212 38.7006 233.222 38.5213 233.212C35.6538 233.378 32.3183 233.554 31.072 230.717C30.3692 229.115 31.2743 227.367 32.4678 224.951C33.5171 222.87 34.7902 220.315 35.4952 216.974C35.8081 215.535 36.2647 213.115 36.8504 209.983C39.2131 197.421 43.6207 173.825 48.4676 161.202C54.5475 145.446 73.1955 107.101 117.821 94.5793C162.427 82.0927 184.769 96.2293 194.995 114.913C205.187 133.577 217.362 137.752 226.74 135.247C233.435 133.476 238.563 123.601 244.491 112.241C246.883 107.645 249.394 102.839 252.185 98.1926C261.879 82.0964 273.269 81.2486 283.593 86.7241C293.164 91.8168 287.361 102.554 282.442 111.578C282.044 112.275 281.681 112.992 281.338 113.674C276.345 123.072 274.459 134.15 281.772 142.067C284.896 145.421 290.906 148.574 296.952 151.746C305.184 156.028 313.466 160.385 314.773 165.383C317.063 174.084 309.37 180.924 302.531 183.029C294.029 185.617 270.182 177.924 264.351 174.781C258.534 171.692 247.82 172.326 241.366 176.915C234.891 181.538 233.167 195.574 234.122 202.404C235.076 209.234 236.963 243.585 202.476 269.518C167.989 295.451 123.68 286.848 101.475 276.764C83.672 268.684 61.1899 261.677 52.1773 259.168C49.2643 258.199 42.746 255.773 40.0814 253.882ZM115.89 227.13C97.4317 213.962 93.4293 188.016 106.851 169.194C120.307 150.393 146.123 145.808 164.581 158.975C183.039 172.143 187.042 198.089 173.62 216.911C160.144 235.747 134.293 240.312 115.89 227.13Z" fill="#FF4856"/>
<path d="M267.008 269.327C270.364 261.907 265.108 254.517 261.322 250.785C257.536 247.054 234.829 220.6 234.488 207.188C234.747 217.504 234.614 219.923 228.51 236.774C220.835 257.997 191.932 280.462 166.206 284.728C140.479 288.994 123.101 283.652 121.497 283.384C122.583 284.559 159.103 305.677 206.695 299.377C252.673 293.312 263.651 276.747 267.008 269.327Z" fill="#FFABAB"/>
<path d="M119.809 61.7C130.415 55.8292 150.842 46.5973 157.015 45.8221C163.168 45.0818 178.986 47.7315 178.436 60.681C177.885 73.6306 186.504 100.639 193.062 112.146C199.565 123.668 182.31 97.784 155.876 92.3574C133.246 87.7152 92.2422 96.4808 69.1837 126.763C50.1747 151.732 52.8291 153.154 50.7447 156.078C53.9534 142.843 65.7158 113 76.2472 98.3517C89.3902 80.0182 109.238 67.5906 119.809 61.7Z" fill="#FFABAB"/>
<path fill-rule="evenodd" clip-rule="evenodd" d="M62.407 213.061C54.7001 212.96 48.7073 206.536 49.1012 198.72C49.495 190.903 56.113 184.652 63.8547 184.772C71.5616 184.872 77.5544 191.296 77.1605 199.112C76.7666 206.929 70.1139 213.161 62.407 213.061Z" fill="white"/>
<path d="M63.8939 183.731C55.6493 183.602 48.464 190.362 48.0605 198.681C47.6569 207 54.143 213.937 62.3527 214.047C70.5973 214.176 77.7825 207.416 78.186 199.097C78.6443 190.763 72.1583 183.826 63.8939 183.731ZM63.8202 185.723C71.0243 185.813 76.524 191.725 76.1199 199.073C75.7357 206.387 69.6652 212.166 62.481 212.04C55.277 211.95 49.7773 206.038 50.1814 198.69C50.5208 191.535 56.6162 185.632 63.8202 185.723Z" fill="#F02F3E"/>
<path fill-rule="evenodd" clip-rule="evenodd" d="M62.1253 208.047C57.0422 207.966 53.0321 203.736 53.298 198.573C53.5639 193.41 57.9776 189.32 63.0806 189.367C68.1638 189.449 72.1739 193.678 71.908 198.841C71.6421 204.004 67.2185 208.273 62.1253 208.047Z" fill="#000C0C"/>
<path fill-rule="evenodd" clip-rule="evenodd" d="M58.8551 200.82C56.5749 200.767 54.8961 198.931 55.0242 196.601C55.1524 194.271 56.9785 192.447 59.2587 192.501C61.5389 192.554 63.2177 194.391 63.0896 196.721C62.9713 198.871 60.966 200.685 58.8551 200.82Z" fill="white"/>
<path d="M133.889 265.315C134.531 265.404 135.059 265.613 135.417 265.956C135.831 266.285 136.04 266.728 136.085 267.215C136.175 268.191 135.598 269.202 134.648 270.139C133.663 271.055 132.249 271.912 130.383 272.511C124.584 274.331 120.681 274.368 117.434 273.579C115.129 273.003 113.117 271.993 111.09 270.929C110.303 270.526 109.516 270.123 108.675 269.735C106.399 268.621 104.755 267.452 103.684 266.333C103.156 265.8 102.738 265.238 102.498 264.685C102.239 264.168 102.124 263.64 102.204 263.177C102.268 262.659 102.542 262.261 103.005 262.017C103.433 261.753 103.96 261.638 104.608 261.637C105.847 261.652 107.565 262.124 109.647 263.173C109.821 263.272 109.995 263.372 110.19 263.437C113.267 265.008 115.961 266.361 118.765 267.036C121.693 267.736 124.804 267.71 128.622 266.284C130.847 265.381 132.604 265.136 133.889 265.315Z" fill="white"/>
<path d="M133.889 265.315C134.531 265.404 135.059 265.613 135.417 265.956C135.831 266.285 136.04 266.728 136.085 267.215C136.175 268.191 135.598 269.202 134.648 270.139C133.663 271.055 132.249 271.912 130.383 272.511C124.584 274.331 120.681 274.368 117.434 273.579C115.129 273.003 113.117 271.993 111.09 270.929C110.303 270.526 109.516 270.123 108.675 269.735C106.399 268.621 104.755 267.452 103.684 266.333C103.156 265.8 102.738 265.238 102.498 264.685C102.239 264.168 102.124 263.64 102.204 263.177C102.268 262.659 102.542 262.261 103.005 262.017C103.433 261.753 103.96 261.638 104.608 261.637C105.847 261.652 107.565 262.124 109.647 263.173C109.821 263.272 109.995 263.372 110.19 263.437C113.267 265.008 115.961 266.361 118.765 267.036C121.693 267.736 124.804 267.71 128.622 266.284C130.847 265.381 132.604 265.136 133.889 265.315Z" stroke="white" stroke-width="4.0372"/>
<path d="M142.153 142.479C141.571 142.285 141.083 142.007 140.744 141.629C140.405 141.251 140.27 140.758 140.28 140.255C140.369 139.289 141.085 138.358 142.185 137.645C143.305 136.898 144.848 136.299 146.804 136.03C152.818 135.21 156.687 135.8 159.759 137.137C161.935 138.102 163.734 139.405 165.581 140.783C166.289 141.326 167.016 141.833 167.778 142.36C169.82 143.803 171.249 145.266 172.151 146.52C172.585 147.137 172.874 147.764 173.058 148.332C173.208 148.879 173.233 149.402 173.099 149.88C172.93 150.338 172.622 150.717 172.144 150.906C171.666 151.096 171.143 151.121 170.521 150.996C169.291 150.803 167.697 150.032 165.815 148.634C165.66 148.5 165.486 148.401 165.367 148.286C162.567 146.227 160.167 144.441 157.532 143.307C154.739 142.129 151.692 141.638 147.694 142.406C145.131 142.931 143.353 142.887 142.153 142.479Z" fill="white"/>
<path d="M142.153 142.479C141.571 142.285 141.083 142.007 140.744 141.629C140.405 141.251 140.27 140.758 140.28 140.255C140.369 139.289 141.085 138.358 142.185 137.645C143.305 136.898 144.848 136.299 146.804 136.03C152.818 135.21 156.687 135.8 159.759 137.137C161.935 138.102 163.734 139.405 165.581 140.783C166.289 141.326 167.016 141.833 167.778 142.36C169.82 143.803 171.249 145.266 172.151 146.52C172.585 147.137 172.874 147.764 173.058 148.332C173.208 148.879 173.233 149.402 173.099 149.88C172.93 150.338 172.622 150.717 172.144 150.906C171.666 151.096 171.143 151.121 170.521 150.996C169.291 150.803 167.697 150.032 165.815 148.634C165.66 148.5 165.486 148.401 165.367 148.286C162.567 146.227 160.167 144.441 157.532 143.307C154.739 142.129 151.692 141.638 147.694 142.406C145.131 142.931 143.353 142.887 142.153 142.479Z" stroke="white" stroke-width="4.0372"/>
<path fill-rule="evenodd" clip-rule="evenodd" d="M139.912 282.293C172.433 284.585 205.959 266.33 223.385 233.526C237.783 206.435 237.865 175.841 226.132 151.537C241.196 176.725 242.559 210.454 226.859 239.991C204.28 282.471 154.873 300.536 115.392 281.287C123.483 282.9 131.738 283.174 139.912 282.293Z" fill="#F02F3E"/>
</svg>
