<svg width="1440" height="578" fill="none" xmlns="http://www.w3.org/2000/svg">
<path fill-rule="evenodd" clip-rule="evenodd" d="M215.047 52.2083C268.391 39.4136 305.176 44.8811 341.317 50.253C371.297 54.709 400.834 59.0992 439.011 52.9456C478.754 46.5398 507.566 36.5533 535.298 26.9412C565.391 16.5105 594.21 6.52103 634.344 2.02738C677.184 -2.76925 711.083 4.5535 749.607 12.8758C784.356 20.3824 822.868 28.7017 875.1 29.6739C908.23 30.2906 938.062 27.9507 967.098 25.6734C1019.54 21.5601 1069.39 17.6504 1131.4 31.7303C1170.7 40.6551 1205.65 57.9468 1241.64 75.7508C1298.22 103.742 1357.35 133 1440 133V469.381C1367.33 456.256 1328.27 477.354 1289.63 498.232C1269.52 509.095 1249.52 519.899 1224.95 525.792C1171.61 538.586 1134.82 533.119 1098.68 527.747C1068.7 523.291 1039.17 518.901 1000.99 525.054C961.246 531.46 932.434 541.447 904.702 551.059C874.609 561.49 845.79 571.479 805.656 575.973C762.816 580.769 728.917 573.447 690.393 565.124C655.644 557.618 617.132 549.298 564.9 548.326C531.77 547.71 501.938 550.049 472.902 552.327C420.46 556.44 370.612 560.35 308.604 546.27C269.299 537.345 234.349 520.053 198.362 502.249C141.784 474.258 82.6465 445 0 445V108.619C72.6719 121.744 111.727 100.646 150.374 79.7676C170.482 68.9046 190.48 58.1009 215.047 52.2083Z" fill="#C4C4C4"/>
</svg>
